# xmcd CD database file
#
# Track frame offsets:
#	150
#	11193
#	24366
#	34284
#	44607
#	56168
#	65999
#	78665
#	88069
#	99119
#	110042
#	122987
#	132397
#	144822
#	154098
#	164024
#	174919
#	187191
#	199719
#	212666
#	222553
#	233612
#
# Disc length: 3278 seconds
#
# Revision: 0
# Processed by: cddbd v1.5.1PL0 Copyright (c) Steve Scherf et al.
# Submitted via: CDex 1.51
#
DISCID=4a0ccc16
DTITLE=Jim Reeves - The Ultimate Collection Disc2
DYEAR=1900
DGENRE=Country
TTITLE0=That's When I See The Blues
TTITLE1=When You Are Gone
TTITLE2=I'm Beginning To forget You
TTITLE3=Losing Your Love
TTITLE4=You Belong To Me
TTITLE5=But You Love Me Daddy
TTITLE6=Bimbo
TTITLE7=Billy Bayou
TTITLE8=My Lips Are Sealed
TTITLE9=Angels Don't Lie
TTITLE10=Have I Told You Lately That I Love You
TTITLE11=Theres A Heartache Following Me
TTITLE12=A Letter To My Heart
TTITLE13=I Know One
TTITLE14=Blue Boy
TTITLE15=I Love You More
TTITLE16=Pride Goes Before A Fall
TTITLE17=Blue Side Of Lonesome
TTITLE18=You'll Never Know
TTITLE19=When Two Worlds Collide
TTITLE20=Make The World Go Away
TTITLE21=I Love You Because
EXTD=
EXTT0=
EXTT1=
EXTT2=
EXTT3=
EXTT4=
EXTT5=
EXTT6=
EXTT7=
EXTT8=
EXTT9=
EXTT10=
EXTT11=
EXTT12=
EXTT13=
EXTT14=
EXTT15=
EXTT16=
EXTT17=
EXTT18=
EXTT19=
EXTT20=
EXTT21=
PLAYORDER=
